<svg xmlns="http://www.w3.org/2000/svg" xmlns:xlink="http://www.w3.org/1999/xlink" width="500" zoomAndPan="magnify" viewBox="0 0 375 374.999991" height="500" preserveAspectRatio="xMidYMid meet" version="1.0"><defs><g/><clipPath id="5f5a7131aa"><path d="M 114.171875 91.605469 L 261 91.605469 L 261 222.855469 L 114.171875 222.855469 Z M 114.171875 91.605469 " clip-rule="nonzero"/></clipPath><clipPath id="b6e676c481"><path d="M 166.535156 137.117188 L 187.585938 137.117188 L 187.585938 158.167969 L 166.535156 158.167969 Z M 166.535156 137.117188 " clip-rule="nonzero"/></clipPath><clipPath id="b6a8d804dd"><path d="M 177.0625 137.117188 C 171.25 137.117188 166.535156 141.828125 166.535156 147.644531 C 166.535156 153.457031 171.25 158.167969 177.0625 158.167969 C 182.875 158.167969 187.585938 153.457031 187.585938 147.644531 C 187.585938 141.828125 182.875 137.117188 177.0625 137.117188 Z M 177.0625 137.117188 " clip-rule="nonzero"/></clipPath><clipPath id="48ca87ab12"><path d="M 167.285156 174.191406 L 188.335938 174.191406 L 188.335938 195.238281 L 167.285156 195.238281 Z M 167.285156 174.191406 " clip-rule="nonzero"/></clipPath><clipPath id="843b9fa0cb"><path d="M 177.8125 174.191406 C 172 174.191406 167.285156 178.902344 167.285156 184.714844 C 167.285156 190.527344 172 195.238281 177.8125 195.238281 C 183.625 195.238281 188.335938 190.527344 188.335938 184.714844 C 188.335938 178.902344 183.625 174.191406 177.8125 174.191406 Z M 177.8125 174.191406 " clip-rule="nonzero"/></clipPath><clipPath id="b1a0170fda"><path d="M 184.484375 155.917969 L 205.535156 155.917969 L 205.535156 176.96875 L 184.484375 176.96875 Z M 184.484375 155.917969 " clip-rule="nonzero"/></clipPath><clipPath id="4220123632"><path d="M 195.011719 155.917969 C 189.195312 155.917969 184.484375 160.628906 184.484375 166.441406 C 184.484375 172.253906 189.195312 176.96875 195.011719 176.96875 C 200.824219 176.96875 205.535156 172.253906 205.535156 166.441406 C 205.535156 160.628906 200.824219 155.917969 195.011719 155.917969 Z M 195.011719 155.917969 " clip-rule="nonzero"/></clipPath></defs><rect x="-37.5" width="450" fill="#ffffff" y="-37.499999" height="449.999989" fill-opacity="1"/><rect x="-37.5" width="450" fill="#ffffff" y="-37.499999" height="449.999989" fill-opacity="1"/><g clip-path="url(#5f5a7131aa)"><path fill="#000000" d="M 183.8125 176.882812 L 187.234375 172.992188 C 188.859375 174.964844 191.121094 176.242188 193.792969 176.589844 L 193.792969 195.800781 L 175.105469 206.476562 L 156.476562 217.273438 L 137.847656 206.535156 L 119.21875 195.800781 L 119.21875 152.738281 L 129.492188 146.761719 L 129.492188 140.960938 L 114.171875 149.839844 L 114.171875 198.703125 L 156.476562 223.132812 L 198.78125 198.703125 L 198.78125 175.894531 C 202.4375 174.386719 204.933594 170.789062 204.933594 166.609375 C 204.933594 161.097656 200.40625 156.570312 194.894531 156.570312 C 191.644531 156.570312 188.742188 158.078125 186.886719 160.457031 L 183.40625 156.453125 C 185.898438 154.769531 187.464844 152.042969 187.757812 148.96875 L 199.945312 141.886719 L 218.570312 131.152344 L 237.199219 141.886719 L 255.828125 152.625 L 255.828125 195.683594 L 237.144531 206.476562 L 218.515625 217.214844 L 199.886719 206.476562 L 196.984375 204.851562 L 191.933594 207.753906 L 218.515625 223.074219 L 260.820312 198.644531 L 260.820312 149.78125 L 218.515625 125.347656 L 186.652344 143.746094 C 185.03125 140.4375 181.605469 138.117188 177.660156 138.117188 C 172.144531 138.117188 167.621094 142.640625 167.621094 148.15625 C 167.621094 153.496094 171.855469 157.964844 177.253906 158.195312 L 177.253906 174.851562 C 173.65625 175.023438 170.636719 176.996094 168.894531 179.957031 L 156.359375 172.703125 L 137.734375 161.96875 L 137.734375 118.90625 L 156.359375 108.171875 L 174.988281 97.433594 L 193.617188 108.171875 L 212.246094 118.90625 L 212.246094 125.117188 L 217.296875 122.214844 L 217.296875 116.003906 L 175.046875 91.691406 L 132.742188 116.121094 L 132.742188 164.984375 L 167.621094 185.179688 C 167.675781 190.695312 172.144531 195.160156 177.660156 195.160156 C 183.171875 195.160156 187.699219 190.636719 187.699219 185.121094 C 187.816406 181.640625 186.191406 178.738281 183.8125 176.882812 Z M 186.710938 172.238281 L 183.113281 176.300781 C 181.664062 175.371094 180.039062 174.851562 178.238281 174.792969 L 178.238281 158.195312 C 179.863281 158.136719 181.375 157.671875 182.765625 156.917969 L 186.539062 161.15625 C 185.492188 162.664062 185.03125 164.578125 185.03125 166.492188 C 184.914062 168.699219 185.609375 170.671875 186.710938 172.238281 Z M 186.710938 172.238281 " fill-opacity="1" fill-rule="evenodd"/></g><g clip-path="url(#b6e676c481)"><g clip-path="url(#b6a8d804dd)"><path fill="#000000" d="M 166.535156 137.117188 L 187.585938 137.117188 L 187.585938 158.167969 L 166.535156 158.167969 Z M 166.535156 137.117188 " fill-opacity="1" fill-rule="nonzero"/></g></g><g clip-path="url(#48ca87ab12)"><g clip-path="url(#843b9fa0cb)"><path fill="#141034" d="M 167.285156 174.191406 L 188.335938 174.191406 L 188.335938 195.238281 L 167.285156 195.238281 Z M 167.285156 174.191406 " fill-opacity="1" fill-rule="nonzero"/></g></g><g clip-path="url(#b1a0170fda)"><g clip-path="url(#4220123632)"><path fill="#141034" d="M 184.484375 155.917969 L 205.535156 155.917969 L 205.535156 176.96875 L 184.484375 176.96875 Z M 184.484375 155.917969 " fill-opacity="1" fill-rule="nonzero"/></g></g><g fill="#000000" fill-opacity="1"><g transform="translate(116.50127, 260.739153)"><g><path d="M 11.25 -8.96875 L 7.234375 -8.96875 L 7.234375 0 L 2.1875 0 L 2.1875 -24.484375 L 11.28125 -24.484375 C 14.175781 -24.484375 16.40625 -23.835938 17.96875 -22.546875 C 19.539062 -21.253906 20.328125 -19.429688 20.328125 -17.078125 C 20.328125 -15.410156 19.960938 -14.019531 19.234375 -12.90625 C 18.515625 -11.789062 17.421875 -10.898438 15.953125 -10.234375 L 21.25 -0.234375 L 21.25 0 L 15.84375 0 Z M 7.234375 -13.046875 L 11.296875 -13.046875 C 12.566406 -13.046875 13.546875 -13.367188 14.234375 -14.015625 C 14.929688 -14.660156 15.28125 -15.550781 15.28125 -16.6875 C 15.28125 -17.832031 14.953125 -18.734375 14.296875 -19.390625 C 13.640625 -20.054688 12.632812 -20.390625 11.28125 -20.390625 L 7.234375 -20.390625 Z M 7.234375 -13.046875 "/></g></g></g><g fill="#000000" fill-opacity="1"><g transform="translate(139.162553, 260.739153)"><g><path d="M 16.921875 -10.609375 L 7.234375 -10.609375 L 7.234375 -4.046875 L 18.59375 -4.046875 L 18.59375 0 L 2.1875 0 L 2.1875 -24.484375 L 18.5625 -24.484375 L 18.5625 -20.390625 L 7.234375 -20.390625 L 7.234375 -14.5625 L 16.921875 -14.5625 Z M 16.921875 -10.609375 "/></g></g></g><g fill="#000000" fill-opacity="1"><g transform="translate(159.218074, 260.739153)"><g><path d="M 20.71875 -24.484375 L 20.71875 -8.359375 C 20.71875 -5.679688 19.878906 -3.5625 18.203125 -2 C 16.523438 -0.4375 14.234375 0.34375 11.328125 0.34375 C 8.472656 0.34375 6.203125 -0.410156 4.515625 -1.921875 C 2.835938 -3.441406 1.984375 -5.523438 1.953125 -8.171875 L 1.953125 -24.484375 L 7 -24.484375 L 7 -8.328125 C 7 -6.722656 7.378906 -5.550781 8.140625 -4.8125 C 8.910156 -4.082031 9.972656 -3.71875 11.328125 -3.71875 C 14.171875 -3.71875 15.613281 -5.207031 15.65625 -8.1875 L 15.65625 -24.484375 Z M 20.71875 -24.484375 "/></g></g></g><g fill="#000000" fill-opacity="1"><g transform="translate(182.568625, 260.739153)"><g><path d="M 14.875 -6.421875 C 14.875 -7.378906 14.535156 -8.113281 13.859375 -8.625 C 13.191406 -9.132812 11.984375 -9.671875 10.234375 -10.234375 C 8.492188 -10.796875 7.113281 -11.351562 6.09375 -11.90625 C 3.3125 -13.40625 1.921875 -15.425781 1.921875 -17.96875 C 1.921875 -19.289062 2.289062 -20.472656 3.03125 -21.515625 C 3.78125 -22.554688 4.851562 -23.363281 6.25 -23.9375 C 7.644531 -24.519531 9.210938 -24.8125 10.953125 -24.8125 C 12.691406 -24.8125 14.242188 -24.492188 15.609375 -23.859375 C 16.984375 -23.234375 18.046875 -22.34375 18.796875 -21.1875 C 19.554688 -20.03125 19.9375 -18.71875 19.9375 -17.25 L 14.890625 -17.25 C 14.890625 -18.375 14.535156 -19.242188 13.828125 -19.859375 C 13.128906 -20.484375 12.140625 -20.796875 10.859375 -20.796875 C 9.628906 -20.796875 8.671875 -20.535156 7.984375 -20.015625 C 7.304688 -19.492188 6.96875 -18.804688 6.96875 -17.953125 C 6.96875 -17.160156 7.363281 -16.492188 8.15625 -15.953125 C 8.957031 -15.421875 10.140625 -14.914062 11.703125 -14.4375 C 14.578125 -13.582031 16.664062 -12.515625 17.96875 -11.234375 C 19.28125 -9.953125 19.9375 -8.359375 19.9375 -6.453125 C 19.9375 -4.335938 19.132812 -2.675781 17.53125 -1.46875 C 15.9375 -0.257812 13.78125 0.34375 11.0625 0.34375 C 9.175781 0.34375 7.457031 0 5.90625 -0.6875 C 4.363281 -1.382812 3.1875 -2.332031 2.375 -3.53125 C 1.5625 -4.726562 1.15625 -6.117188 1.15625 -7.703125 L 6.21875 -7.703125 C 6.21875 -5.003906 7.832031 -3.65625 11.0625 -3.65625 C 12.257812 -3.65625 13.191406 -3.894531 13.859375 -4.375 C 14.535156 -4.863281 14.875 -5.546875 14.875 -6.421875 Z M 14.875 -6.421875 "/></g></g></g><g fill="#000000" fill-opacity="1"><g transform="translate(204.422959, 260.739153)"><g><path d="M 7.546875 0 L 2.5 0 L 2.5 -24.484375 L 7.546875 -24.484375 Z M 7.546875 0 "/></g></g></g><g fill="#000000" fill-opacity="1"><g transform="translate(215.148167, 260.739153)"><g><path d="M 7.546875 0 L 2.5 0 L 2.5 -24.484375 L 7.546875 -24.484375 Z M 7.546875 0 "/></g></g></g><g fill="#000000" fill-opacity="1"><g transform="translate(225.873375, 260.739153)"><g><path d="M 7.546875 0 L 2.5 0 L 2.5 -24.484375 L 7.546875 -24.484375 Z M 7.546875 0 "/></g></g></g><g fill="#000000" fill-opacity="1"><g transform="translate(236.598582, 260.739153)"><g><path d="M 10.953125 -16.046875 L 15.53125 -24.484375 L 21.34375 -24.484375 L 14.203125 -12.34375 L 21.53125 0 L 15.65625 0 L 10.953125 -8.578125 L 6.234375 0 L 0.375 0 L 7.6875 -12.34375 L 0.5625 -24.484375 L 6.359375 -24.484375 Z M 10.953125 -16.046875 "/></g></g></g></svg>