<svg xmlns="http://www.w3.org/2000/svg" xmlns:xlink="http://www.w3.org/1999/xlink" width="376" zoomAndPan="magnify" viewBox="0 0 282 84.749999" height="113" preserveAspectRatio="xMidYMid meet" version="1.0"><defs><g/><clipPath id="29b9a905ae"><path d="M 0.414062 18 L 36 18 L 36 64 L 0.414062 64 Z M 0.414062 18 " clip-rule="nonzero"/></clipPath></defs><g clip-path="url(#29b9a905ae)"><g fill="#000000" fill-opacity="1"><g transform="translate(-4.271822, 63.936395)"><g><path d="M 20.96875 -16.703125 L 13.484375 -16.703125 L 13.484375 0 L 4.078125 0 L 4.078125 -45.640625 L 21.03125 -45.640625 C 26.414062 -45.640625 30.570312 -44.4375 33.5 -42.03125 C 36.425781 -39.625 37.890625 -36.226562 37.890625 -31.84375 C 37.890625 -28.726562 37.210938 -26.128906 35.859375 -24.046875 C 34.515625 -21.972656 32.476562 -20.320312 29.75 -19.09375 L 39.609375 -0.4375 L 39.609375 0 L 29.53125 0 Z M 13.484375 -24.328125 L 21.0625 -24.328125 C 23.425781 -24.328125 25.253906 -24.925781 26.546875 -26.125 C 27.835938 -27.320312 28.484375 -28.976562 28.484375 -31.09375 C 28.484375 -33.238281 27.875 -34.925781 26.65625 -36.15625 C 25.4375 -37.394531 23.5625 -38.015625 21.03125 -38.015625 L 13.484375 -38.015625 Z M 13.484375 -24.328125 "/></g></g></g></g><g fill="#000000" fill-opacity="1"><g transform="translate(35.660906, 63.936395)"><g><path d="M 19.09375 0.625 C 14.113281 0.625 10.0625 -0.898438 6.9375 -3.953125 C 3.8125 -7.003906 2.25 -11.066406 2.25 -16.140625 L 2.25 -17.015625 C 2.25 -20.421875 2.90625 -23.46875 4.21875 -26.15625 C 5.539062 -28.84375 7.410156 -30.910156 9.828125 -32.359375 C 12.242188 -33.804688 14.992188 -34.53125 18.078125 -34.53125 C 22.722656 -34.53125 26.375 -33.066406 29.03125 -30.140625 C 31.695312 -27.222656 33.03125 -23.078125 33.03125 -17.703125 L 33.03125 -14.015625 L 11.4375 -14.015625 C 11.726562 -11.796875 12.609375 -10.015625 14.078125 -8.671875 C 15.554688 -7.335938 17.425781 -6.671875 19.6875 -6.671875 C 23.175781 -6.671875 25.898438 -7.9375 27.859375 -10.46875 L 32.3125 -5.484375 C 30.957031 -3.554688 29.117188 -2.054688 26.796875 -0.984375 C 24.472656 0.0859375 21.90625 0.625 19.09375 0.625 Z M 18.046875 -27.203125 C 16.253906 -27.203125 14.796875 -26.59375 13.671875 -25.375 C 12.554688 -24.164062 11.84375 -22.4375 11.53125 -20.1875 L 24.140625 -20.1875 L 24.140625 -20.90625 C 24.097656 -22.90625 23.550781 -24.453125 22.5 -25.546875 C 21.457031 -26.648438 19.972656 -27.203125 18.046875 -27.203125 Z M 18.046875 -27.203125 "/></g></g></g><g fill="#000000" fill-opacity="1"><g transform="translate(69.325883, 63.936395)"><g><path d="M 11.8125 -33.90625 L 12.09375 -30 C 14.519531 -33.019531 17.769531 -34.53125 21.84375 -34.53125 C 25.4375 -34.53125 28.109375 -33.472656 29.859375 -31.359375 C 31.617188 -29.253906 32.519531 -26.101562 32.5625 -21.90625 L 32.5625 0 L 23.5 0 L 23.5 -21.6875 C 23.5 -23.613281 23.082031 -25.007812 22.25 -25.875 C 21.414062 -26.738281 20.023438 -27.171875 18.078125 -27.171875 C 15.535156 -27.171875 13.625 -26.082031 12.34375 -23.90625 L 12.34375 0 L 3.296875 0 L 3.296875 -33.90625 Z M 11.8125 -33.90625 "/></g></g></g><g fill="#000000" fill-opacity="1"><g transform="translate(104.244412, 63.936395)"><g><path d="M 14.328125 -42.25 L 14.328125 -33.90625 L 20.125 -33.90625 L 20.125 -27.265625 L 14.328125 -27.265625 L 14.328125 -10.34375 C 14.328125 -9.09375 14.566406 -8.191406 15.046875 -7.640625 C 15.523438 -7.097656 16.441406 -6.828125 17.796875 -6.828125 C 18.804688 -6.828125 19.695312 -6.898438 20.46875 -7.046875 L 20.46875 -0.1875 C 18.6875 0.351562 16.859375 0.625 14.984375 0.625 C 8.628906 0.625 5.390625 -2.582031 5.265625 -9 L 5.265625 -27.265625 L 0.3125 -27.265625 L 0.3125 -33.90625 L 5.265625 -33.90625 L 5.265625 -42.25 Z M 14.328125 -42.25 "/></g></g></g><g fill="#000000" fill-opacity="1"><g transform="translate(124.903798, 63.936395)"><g><path d="M 27.734375 -11.96875 C 27.734375 -13.75 27.101562 -15.113281 25.84375 -16.0625 C 24.59375 -17.007812 22.335938 -18.007812 19.078125 -19.0625 C 15.828125 -20.125 13.25 -21.164062 11.34375 -22.1875 C 6.164062 -24.988281 3.578125 -28.757812 3.578125 -33.5 C 3.578125 -35.96875 4.269531 -38.164062 5.65625 -40.09375 C 7.039062 -42.03125 9.035156 -43.539062 11.640625 -44.625 C 14.242188 -45.71875 17.164062 -46.265625 20.40625 -46.265625 C 23.664062 -46.265625 26.566406 -45.671875 29.109375 -44.484375 C 31.660156 -43.304688 33.640625 -41.640625 35.046875 -39.484375 C 36.460938 -37.335938 37.171875 -34.894531 37.171875 -32.15625 L 27.765625 -32.15625 C 27.765625 -34.25 27.101562 -35.875 25.78125 -37.03125 C 24.46875 -38.1875 22.625 -38.765625 20.25 -38.765625 C 17.945312 -38.765625 16.15625 -38.28125 14.875 -37.3125 C 13.601562 -36.34375 12.96875 -35.0625 12.96875 -33.46875 C 12.96875 -31.988281 13.710938 -30.742188 15.203125 -29.734375 C 16.703125 -28.734375 18.90625 -27.796875 21.8125 -26.921875 C 27.164062 -25.316406 31.0625 -23.320312 33.5 -20.9375 C 35.945312 -18.550781 37.171875 -15.582031 37.171875 -12.03125 C 37.171875 -8.082031 35.675781 -4.984375 32.6875 -2.734375 C 29.695312 -0.492188 25.675781 0.625 20.625 0.625 C 17.113281 0.625 13.914062 -0.015625 11.03125 -1.296875 C 8.144531 -2.585938 5.941406 -4.347656 4.421875 -6.578125 C 2.910156 -8.816406 2.15625 -11.410156 2.15625 -14.359375 L 11.59375 -14.359375 C 11.59375 -9.316406 14.601562 -6.796875 20.625 -6.796875 C 22.851562 -6.796875 24.59375 -7.25 25.84375 -8.15625 C 27.101562 -9.070312 27.734375 -10.34375 27.734375 -11.96875 Z M 27.734375 -11.96875 "/></g></g></g><g fill="#000000" fill-opacity="1"><g transform="translate(163.332262, 63.936395)"><g><path d="M 32.96875 -12.3125 L 37.421875 -33.90625 L 46.171875 -33.90625 L 37.515625 0 L 29.9375 0 L 23.5 -21.34375 L 17.078125 0 L 9.53125 0 L 0.875 -33.90625 L 9.625 -33.90625 L 14.046875 -12.34375 L 20.25 -33.90625 L 26.796875 -33.90625 Z M 32.96875 -12.3125 "/></g></g></g><g fill="#000000" fill-opacity="1"><g transform="translate(209.47006, 63.936395)"><g><path d="M 23.125 0 C 22.707031 -0.8125 22.40625 -1.828125 22.21875 -3.046875 C 20.03125 -0.597656 17.179688 0.625 13.671875 0.625 C 10.347656 0.625 7.59375 -0.332031 5.40625 -2.25 C 3.21875 -4.175781 2.125 -6.601562 2.125 -9.53125 C 2.125 -13.125 3.457031 -15.878906 6.125 -17.796875 C 8.789062 -19.722656 12.640625 -20.695312 17.671875 -20.71875 L 21.84375 -20.71875 L 21.84375 -22.65625 C 21.84375 -24.226562 21.441406 -25.484375 20.640625 -26.421875 C 19.835938 -27.359375 18.566406 -27.828125 16.828125 -27.828125 C 15.304688 -27.828125 14.109375 -27.460938 13.234375 -26.734375 C 12.367188 -26.003906 11.9375 -25 11.9375 -23.71875 L 2.890625 -23.71875 C 2.890625 -25.6875 3.492188 -27.503906 4.703125 -29.171875 C 5.910156 -30.847656 7.617188 -32.160156 9.828125 -33.109375 C 12.046875 -34.054688 14.535156 -34.53125 17.296875 -34.53125 C 21.472656 -34.53125 24.789062 -33.476562 27.25 -31.375 C 29.707031 -29.28125 30.9375 -26.332031 30.9375 -22.53125 L 30.9375 -7.828125 C 30.957031 -4.617188 31.40625 -2.1875 32.28125 -0.53125 L 32.28125 0 Z M 15.640625 -6.296875 C 16.972656 -6.296875 18.203125 -6.59375 19.328125 -7.1875 C 20.460938 -7.789062 21.300781 -8.59375 21.84375 -9.59375 L 21.84375 -15.421875 L 18.453125 -15.421875 C 13.921875 -15.421875 11.507812 -13.851562 11.21875 -10.71875 L 11.1875 -10.1875 C 11.1875 -9.0625 11.582031 -8.128906 12.375 -7.390625 C 13.175781 -6.660156 14.265625 -6.296875 15.640625 -6.296875 Z M 15.640625 -6.296875 "/></g></g></g><g fill="#000000" fill-opacity="1"><g transform="translate(242.85299, 63.936395)"><g><path d="M 34 -16.640625 C 34 -11.421875 32.8125 -7.238281 30.4375 -4.09375 C 28.070312 -0.945312 24.875 0.625 20.84375 0.625 C 17.414062 0.625 14.644531 -0.566406 12.53125 -2.953125 L 12.53125 13.03125 L 3.484375 13.03125 L 3.484375 -33.90625 L 11.875 -33.90625 L 12.1875 -30.59375 C 14.382812 -33.21875 17.25 -34.53125 20.78125 -34.53125 C 24.957031 -34.53125 28.203125 -32.984375 30.515625 -29.890625 C 32.835938 -26.804688 34 -22.546875 34 -17.109375 Z M 24.953125 -17.296875 C 24.953125 -20.453125 24.390625 -22.882812 23.265625 -24.59375 C 22.148438 -26.3125 20.523438 -27.171875 18.390625 -27.171875 C 15.554688 -27.171875 13.601562 -26.082031 12.53125 -23.90625 L 12.53125 -10.03125 C 13.644531 -7.789062 15.617188 -6.671875 18.453125 -6.671875 C 22.785156 -6.671875 24.953125 -10.210938 24.953125 -17.296875 Z M 24.953125 -17.296875 "/></g></g></g></svg>