<svg xmlns="http://www.w3.org/2000/svg" xmlns:xlink="http://www.w3.org/1999/xlink" width="200" zoomAndPan="magnify" viewBox="0 0 150 135.000003" height="180" preserveAspectRatio="xMidYMid meet" version="1.0"><defs><clipPath id="e79c3f6f7e"><path d="M 0.550781 0 L 149.449219 0 L 149.449219 134 L 0.550781 134 Z M 0.550781 0 " clip-rule="nonzero"/></clipPath></defs><g clip-path="url(#e79c3f6f7e)"><path fill="#000000" d="M 71.453125 86.828125 L 74.9375 82.867188 C 76.59375 84.875 78.894531 86.175781 81.613281 86.53125 L 81.613281 106.085938 L 62.589844 116.957031 L 43.625 127.949219 L 24.65625 117.019531 L 5.691406 106.085938 L 5.691406 62.246094 L 16.148438 56.160156 L 16.148438 50.253906 L 0.550781 59.292969 L 0.550781 109.042969 L 43.625 133.914062 L 86.695312 109.042969 L 86.695312 85.820312 C 90.417969 84.285156 92.957031 80.621094 92.957031 76.367188 C 92.957031 70.753906 88.351562 66.148438 82.738281 66.148438 C 79.429688 66.148438 76.472656 67.683594 74.582031 70.105469 L 71.039062 66.027344 C 73.578125 64.316406 75.175781 61.539062 75.46875 58.40625 L 87.878906 51.199219 L 106.84375 40.269531 L 144.773438 62.128906 L 144.773438 105.96875 L 125.75 116.957031 L 106.785156 127.890625 L 87.816406 116.957031 L 84.863281 115.304688 L 79.722656 118.257812 L 106.785156 133.855469 L 149.855469 108.984375 L 149.855469 59.234375 L 106.785156 34.359375 L 74.347656 53.089844 C 72.691406 49.722656 69.207031 47.359375 65.1875 47.359375 C 59.574219 47.359375 54.96875 51.96875 54.96875 57.578125 C 54.96875 63.015625 59.28125 67.566406 64.773438 67.800781 L 64.773438 84.757812 C 61.113281 84.9375 58.039062 86.945312 56.265625 89.957031 L 43.503906 82.570312 L 24.539062 71.640625 L 24.539062 27.800781 L 43.503906 16.871094 L 62.472656 5.941406 L 100.402344 27.800781 L 100.402344 34.125 L 105.542969 31.167969 L 105.542969 24.847656 L 62.53125 0.0898438 L 19.457031 24.964844 L 19.457031 74.714844 L 54.96875 95.273438 C 55.027344 100.886719 59.574219 105.4375 65.1875 105.4375 C 70.800781 105.4375 75.410156 100.828125 75.410156 95.214844 C 75.527344 91.671875 73.875 88.71875 71.453125 86.828125 Z M 74.40625 82.097656 L 70.742188 86.234375 C 69.265625 85.289062 67.613281 84.757812 65.78125 84.699219 L 65.78125 67.800781 C 67.433594 67.742188 68.96875 67.269531 70.386719 66.5 L 74.230469 70.816406 C 73.164062 72.351562 72.691406 74.300781 72.691406 76.25 C 72.574219 78.496094 73.285156 80.503906 74.40625 82.097656 Z M 74.40625 82.097656 " fill-opacity="1" fill-rule="evenodd"/></g></svg>