<svg xmlns="http://www.w3.org/2000/svg" xmlns:xlink="http://www.w3.org/1999/xlink" width="500" zoomAndPan="magnify" viewBox="0 0 375 374.999991" height="500" preserveAspectRatio="xMidYMid meet" version="1.0"><defs><clipPath id="b4ef5ad570"><path d="M 114.171875 91.605469 L 261 91.605469 L 261 222.855469 L 114.171875 222.855469 Z M 114.171875 91.605469 " clip-rule="nonzero"/></clipPath><clipPath id="b4eb07cedb"><path d="M 166.535156 137.117188 L 187.585938 137.117188 L 187.585938 158.167969 L 166.535156 158.167969 Z M 166.535156 137.117188 " clip-rule="nonzero"/></clipPath><clipPath id="4d319bce25"><path d="M 177.0625 137.117188 C 171.25 137.117188 166.535156 141.828125 166.535156 147.644531 C 166.535156 153.457031 171.25 158.167969 177.0625 158.167969 C 182.875 158.167969 187.585938 153.457031 187.585938 147.644531 C 187.585938 141.828125 182.875 137.117188 177.0625 137.117188 Z M 177.0625 137.117188 " clip-rule="nonzero"/></clipPath><clipPath id="c18221d8fa"><path d="M 167.285156 174.191406 L 188.335938 174.191406 L 188.335938 195.238281 L 167.285156 195.238281 Z M 167.285156 174.191406 " clip-rule="nonzero"/></clipPath><clipPath id="f4fd581863"><path d="M 177.8125 174.191406 C 172 174.191406 167.285156 178.902344 167.285156 184.714844 C 167.285156 190.527344 172 195.238281 177.8125 195.238281 C 183.625 195.238281 188.335938 190.527344 188.335938 184.714844 C 188.335938 178.902344 183.625 174.191406 177.8125 174.191406 Z M 177.8125 174.191406 " clip-rule="nonzero"/></clipPath><clipPath id="47cbdf2b09"><path d="M 184.484375 155.917969 L 205.535156 155.917969 L 205.535156 176.96875 L 184.484375 176.96875 Z M 184.484375 155.917969 " clip-rule="nonzero"/></clipPath><clipPath id="89fc94f6fc"><path d="M 195.011719 155.917969 C 189.195312 155.917969 184.484375 160.628906 184.484375 166.441406 C 184.484375 172.253906 189.195312 176.96875 195.011719 176.96875 C 200.824219 176.96875 205.535156 172.253906 205.535156 166.441406 C 205.535156 160.628906 200.824219 155.917969 195.011719 155.917969 Z M 195.011719 155.917969 " clip-rule="nonzero"/></clipPath></defs><g clip-path="url(#b4ef5ad570)"><path fill="#000000" d="M 183.8125 176.882812 L 187.234375 172.992188 C 188.859375 174.964844 191.121094 176.242188 193.792969 176.589844 L 193.792969 195.800781 L 175.105469 206.476562 L 156.476562 217.273438 L 137.847656 206.535156 L 119.21875 195.800781 L 119.21875 152.738281 L 129.492188 146.761719 L 129.492188 140.960938 L 114.171875 149.839844 L 114.171875 198.703125 L 156.476562 223.132812 L 198.78125 198.703125 L 198.78125 175.894531 C 202.4375 174.386719 204.933594 170.789062 204.933594 166.609375 C 204.933594 161.097656 200.40625 156.570312 194.894531 156.570312 C 191.644531 156.570312 188.742188 158.078125 186.886719 160.457031 L 183.40625 156.453125 C 185.898438 154.769531 187.464844 152.042969 187.757812 148.96875 L 199.945312 141.886719 L 218.570312 131.152344 L 237.199219 141.886719 L 255.828125 152.625 L 255.828125 195.683594 L 237.144531 206.476562 L 218.515625 217.214844 L 199.886719 206.476562 L 196.984375 204.851562 L 191.933594 207.753906 L 218.515625 223.074219 L 260.820312 198.644531 L 260.820312 149.78125 L 218.515625 125.347656 L 186.652344 143.746094 C 185.03125 140.4375 181.605469 138.117188 177.660156 138.117188 C 172.144531 138.117188 167.621094 142.640625 167.621094 148.15625 C 167.621094 153.496094 171.855469 157.964844 177.253906 158.195312 L 177.253906 174.851562 C 173.65625 175.023438 170.636719 176.996094 168.894531 179.957031 L 156.359375 172.703125 L 137.734375 161.96875 L 137.734375 118.90625 L 156.359375 108.171875 L 174.988281 97.433594 L 193.617188 108.171875 L 212.246094 118.90625 L 212.246094 125.117188 L 217.296875 122.214844 L 217.296875 116.003906 L 175.046875 91.691406 L 132.742188 116.121094 L 132.742188 164.984375 L 167.621094 185.179688 C 167.675781 190.695312 172.144531 195.160156 177.660156 195.160156 C 183.171875 195.160156 187.699219 190.636719 187.699219 185.121094 C 187.816406 181.640625 186.191406 178.738281 183.8125 176.882812 Z M 186.710938 172.238281 L 183.113281 176.300781 C 181.664062 175.371094 180.039062 174.851562 178.238281 174.792969 L 178.238281 158.195312 C 179.863281 158.136719 181.375 157.671875 182.765625 156.917969 L 186.539062 161.15625 C 185.492188 162.664062 185.03125 164.578125 185.03125 166.492188 C 184.914062 168.699219 185.609375 170.671875 186.710938 172.238281 Z M 186.710938 172.238281 " fill-opacity="1" fill-rule="evenodd"/></g><g clip-path="url(#b4eb07cedb)"><g clip-path="url(#4d319bce25)"><path fill="#000000" d="M 166.535156 137.117188 L 187.585938 137.117188 L 187.585938 158.167969 L 166.535156 158.167969 Z M 166.535156 137.117188 " fill-opacity="1" fill-rule="nonzero"/></g></g><g clip-path="url(#c18221d8fa)"><g clip-path="url(#f4fd581863)"><path fill="#141034" d="M 167.285156 174.191406 L 188.335938 174.191406 L 188.335938 195.238281 L 167.285156 195.238281 Z M 167.285156 174.191406 " fill-opacity="1" fill-rule="nonzero"/></g></g><g clip-path="url(#47cbdf2b09)"><g clip-path="url(#89fc94f6fc)"><path fill="#141034" d="M 184.484375 155.917969 L 205.535156 155.917969 L 205.535156 176.96875 L 184.484375 176.96875 Z M 184.484375 155.917969 " fill-opacity="1" fill-rule="nonzero"/></g></g></svg>